<?xml version="1.0" encoding="UTF-8" standalone="no"?>
<svg
   width="192"
   height="207"
   viewBox="0 0 192 207"
   version="1.1"
   id="svg456"
   sodipodi:docname="logo-no-bg-1.svg"
   inkscape:version="1.1.2 (0a00cf5339, 2022-02-04)"
   xmlns:inkscape="http://www.inkscape.org/namespaces/inkscape"
   xmlns:sodipodi="http://sodipodi.sourceforge.net/DTD/sodipodi-0.dtd"
   xmlns="http://www.w3.org/2000/svg"
   xmlns:svg="http://www.w3.org/2000/svg">
  <defs
     id="defs460" />
  <sodipodi:namedview
     id="namedview458"
     pagecolor="#ffffff"
     bordercolor="#666666"
     borderopacity="1.0"
     inkscape:pageshadow="2"
     inkscape:pageopacity="0.0"
     inkscape:pagecheckerboard="0"
     showgrid="false"
     showguides="true"
     inkscape:guide-bbox="true"
     inkscape:zoom="2.6712923"
     inkscape:cx="62.703734"
     inkscape:cy="81.982792"
     inkscape:window-width="1920"
     inkscape:window-height="1043"
     inkscape:window-x="0"
     inkscape:window-y="0"
     inkscape:window-maximized="1"
     inkscape:current-layer="g454">
    <sodipodi:guide
       position="-129.44118,106.67647"
       orientation="1,0"
       id="guide717" />
  </sodipodi:namedview>
  <g
     id="g454">
    <path
       d="m 78.89,175.6 c -8.46,4.73 -17.46,9.66 -19.99,10.94 l -4.6,2.34 -11.4,-6.26 c -6.27,-3.45 -15,-8.21 -19.4,-10.59 -4.4,-2.38 -9.24,-5.19 -10.75,-6.25 L 10,163.86 V 111.22 L 51,88.83 V 65.6 C 51,48.56 51.33,41.95 52.25,40.76 53.92,38.59 93.6,17 95.92,17 c 1.77,0 35.84,18.28 41.33,22.18 l 2.75,1.96 v 23.31 c 0,17.43 0.32,23.57 1.25,24.34 0.69,0.56 9.57,5.59 19.75,11.16 10.18,5.57 19.06,10.88 19.75,11.78 0.92,1.22 1.25,8.12 1.25,26.27 0,18.17 -0.33,25.04 -1.25,26.23 -1.1,1.43 -18.87,11.56 -37.62,21.46 l -6.38,3.36 -3.26,-1.93 C 121.85,180.26 97,167 95.76,167 c -0.81,0 -8.4,3.87 -16.87,8.6 z M 40,173.45 c 5.22,2.86 9.84,5.03 10.25,4.82 0.41,-0.21 0.75,-9.32 0.75,-20.23 V 138.2 l -3.75,-1.96 C 42.94,133.98 34.61,129.47 24.41,123.88 20.52,121.75 17.02,120 16.64,120 c -0.37,0 -0.56,9.1 -0.41,20.23 l 0.27,20.23 7,3.89 c 3.85,2.14 11.28,6.23 16.5,9.1 z m 100.71,3.29 c 0.5,2.22 0.57,2.2 7.15,-1.48 3.65,-2.05 11.14,-6.23 16.64,-9.29 l 10,-5.57 0.27,-20.2 c 0.15,-11.11 0.02,-20.2 -0.28,-20.2 -0.73,0 -25.95,13.69 -30.77,16.7 l -3.79,2.37 0.14,17.71 c 0.08,9.75 0.37,18.73 0.64,19.96 z M 58,158.13 c 0,13.52 0.34,19.87 1.08,19.87 0.59,0 5.65,-2.56 11.25,-5.7 5.59,-3.13 12.76,-7.04 15.92,-8.68 L 92,160.64 V 140.82 C 92,124.81 91.74,121 90.65,121 c -0.75,0 -8.4,3.88 -17,8.63 L 58,138.25 Z m 62,13.78 12.5,6.94 0.27,-20.1 c 0.15,-11.06 -0.07,-20.42 -0.5,-20.81 C 131.31,137.07 100.1,120 99.46,120 99.21,120 99,129.14 99,140.3 v 20.3 l 4.25,2.19 c 2.34,1.2 9.87,5.31 16.75,9.12 z M 73.75,97.28 c 8.66,4.79 16.31,8.71 17,8.71 C 91.71,106 92,101.54 92,87.01 V 68.03 L 88.25,65.6 C 84.44,63.13 58.98,49 58.35,49 58.16,49 58,57.91 58,68.79 V 88.58 Z M 99,87.01 c 0,12.19 0.36,18.99 1.02,18.99 1.31,0 30.09,-15.74 31.75,-17.37 0.96,-0.94 1.21,-5.92 1,-20.42 l -0.27,-19.17 -13,7.04 c -7.15,3.88 -14.69,8.15 -16.75,9.5 L 99,68.03 Z m -61.68,35.67 c 8.9,5 16.38,9.15 16.62,9.21 0.23,0.06 4.73,-2.32 10,-5.28 5.26,-2.97 12.86,-7.19 16.88,-9.38 L 88.15,113.26 71.1,104.05 54.05,94.85 38,103.56 c -8.83,4.79 -16.23,9.01 -16.46,9.37 -0.22,0.36 6.88,4.75 15.78,9.75 z m 83.18,0.24 16,8.9 7,-3.77 c 3.85,-2.07 11.39,-6.12 16.75,-9 5.36,-2.87 9.74,-5.52 9.73,-5.89 -0.01,-0.36 -7.44,-4.64 -16.5,-9.49 L 137,94.83 l -16.47,8.84 c -9.05,4.85 -16.36,9.17 -16.24,9.59 0.12,0.41 7.41,4.76 16.21,9.66 z M 88.45,57.09 c 7.36,3.9 7.87,3.91 13.85,0.19 2.09,-1.3 4.79,-2.79 6,-3.31 4.66,-1.99 19.06,-10.52 19.37,-11.47 0.17,-0.55 -2.94,-2.68 -6.92,-4.72 -3.99,-2.05 -11.24,-6.02 -16.12,-8.82 -8.23,-4.72 -9.07,-4.99 -11.5,-3.77 -12.7,6.37 -30.09,16.45 -29.81,17.28 0.19,0.57 1.21,1.48 2.27,2.03 1.05,0.55 5.07,2.78 8.92,4.95 3.84,2.18 10.12,5.62 13.94,7.64 z"
       fill="#0c0409"
       id="path446" />
    <path
       d="M 73.75,97.28 58,88.58 V 68.79 C 58,57.91 58.16,49 58.35,49 c 0.63,0 26.09,14.13 29.9,16.6 L 92,68.03 v 18.98 c 0,14.53 -0.29,18.99 -1.25,18.98 -0.69,0 -8.34,-3.92 -17,-8.71 z M 99,87.01 V 68.03 l 3.75,-2.45 c 2.06,-1.35 9.6,-5.62 16.75,-9.5 l 13,-7.04 0.27,19.17 c 0.21,14.5 -0.04,19.48 -1,20.42 C 130.11,90.26 101.33,106 100.02,106 99.36,106 99,99.2 99,87.01 Z M 88.45,57.09 C 84.63,55.07 78.35,51.63 74.51,49.45 70.66,47.28 66.64,45.05 65.59,44.5 64.53,43.95 63.51,43.04 63.32,42.47 63.04,41.64 80.43,31.56 93.13,25.19 c 2.43,-1.22 3.27,-0.95 11.5,3.77 4.88,2.8 12.13,6.77 16.12,8.82 3.98,2.04 7.09,4.17 6.92,4.72 -0.31,0.95 -14.71,9.48 -19.37,11.47 -1.21,0.52 -3.91,2.01 -6,3.31 -5.98,3.72 -6.49,3.71 -13.85,-0.19 z"
       fill="#3a3b8e"
       id="path448" />
    <path
       d="m 40,173.45 c -5.22,-2.87 -12.65,-6.96 -16.5,-9.1 l -7,-3.89 -0.27,-20.23 C 16.08,129.1 16.27,120 16.64,120 c 0.38,0 3.88,1.75 7.77,3.88 10.2,5.59 18.53,10.1 22.84,12.36 L 51,138.2 v 19.84 c 0,10.91 -0.34,20.02 -0.75,20.23 -0.41,0.21 -5.03,-1.96 -10.25,-4.82 z m 100.71,3.29 c -0.27,-1.23 -0.56,-10.21 -0.64,-19.96 l -0.14,-17.71 3.79,-2.37 c 4.82,-3.01 30.04,-16.7 30.77,-16.7 0.3,0 0.43,9.09 0.28,20.2 l -0.27,20.2 -10,5.57 c -5.5,3.06 -12.99,7.24 -16.64,9.29 -6.58,3.68 -6.65,3.7 -7.15,1.48 z M 58,158.13 v -19.88 l 15.65,-8.62 c 8.6,-4.75 16.25,-8.63 17,-8.63 1.09,0 1.35,3.81 1.35,19.82 v 19.82 l -5.75,2.98 c -3.16,1.64 -10.33,5.55 -15.92,8.68 -5.6,3.14 -10.66,5.7 -11.25,5.7 C 58.34,178 58,171.65 58,158.13 Z m 62,13.78 c -6.88,-3.81 -14.41,-7.92 -16.75,-9.12 L 99,160.6 v -20.3 c 0,-11.16 0.21,-20.3 0.46,-20.3 0.64,0 31.85,17.07 32.81,17.94 0.43,0.39 0.65,9.75 0.5,20.81 l -0.27,20.1 z M 37.32,122.68 c -8.9,-5 -16,-9.39 -15.78,-9.75 0.23,-0.36 7.63,-4.58 16.46,-9.37 l 16.05,-8.71 17.05,9.2 17.05,9.21 -7.33,3.97 c -4.02,2.19 -11.62,6.41 -16.88,9.38 -5.27,2.96 -9.77,5.34 -10,5.28 -0.24,-0.06 -7.72,-4.21 -16.62,-9.21 z m 83.18,0.24 c -8.8,-4.9 -16.09,-9.25 -16.21,-9.66 -0.12,-0.42 7.19,-4.74 16.24,-9.59 l 16.47,-8.84 16.48,8.84 c 9.06,4.85 16.49,9.13 16.5,9.49 0.01,0.37 -4.37,3.02 -9.73,5.89 -5.36,2.88 -12.9,6.93 -16.75,9 l -7,3.77 z"
       fill="#cd4a70"
       id="path450" />
    <path
       d="M 0,103.5 V 0 h 96 96 L 299.46955,74.928309 192,207 H 96 0 Z m 78.89,72.1 c 8.47,-4.73 16.06,-8.6 16.87,-8.6 1.24,0 26.09,13.26 37.73,20.12 l 3.26,1.93 6.38,-3.36 c 18.75,-9.9 36.52,-20.03 37.62,-21.46 0.92,-1.19 1.25,-8.06 1.25,-26.23 0,-18.15 -0.33,-25.05 -1.25,-26.27 -0.69,-0.9 -9.57,-6.21 -19.75,-11.78 -10.18,-5.57 -19.06,-10.6 -19.75,-11.16 -0.93,-0.77 38.59442,-25.548127 70.18496,28.87693 L 159.42486,5.2702849 184.05744,19.081999 c -5.49,-3.9 -130.752206,-31.258584 -132.522206,-31.258584 -2.32,0 -41.9999996,21.5899995 -43.6699996,23.76 C 6.9452344,12.773415 51,48.56 51,65.6 V 88.83 L 30.5,100.02 10,111.22 v 26.32 26.32 l 2.75,1.92 c 1.51,1.06 6.35,3.87 10.75,6.25 4.4,2.38 13.13,7.14 19.4,10.59 l 11.4,6.26 4.6,-2.34 c 2.53,-1.28 11.53,-6.21 19.99,-10.94 z"
       fill="#fefefe"
       id="path452"
       sodipodi:nodetypes="ccccccccccsccccscsccccscsccccccscccc"
       style="display:none" />
  </g>
</svg>
