<?xml version="1.0" encoding="UTF-8" standalone="no"?>
<svg
   width="640"
   height="640"
   viewBox="0 0 640 640"
   role="img"
   artist="Katerina Limpitsouni"
   source="https://undraw.co/"
   version="1.1"
   id="svg41"
   sodipodi:docname="santa.svg"
   inkscape:version="1.1.2 (0a00cf5339, 2022-02-04)"
   xmlns:inkscape="http://www.inkscape.org/namespaces/inkscape"
   xmlns:sodipodi="http://sodipodi.sourceforge.net/DTD/sodipodi-0.dtd"
   xmlns="http://www.w3.org/2000/svg"
   xmlns:svg="http://www.w3.org/2000/svg">
  <sodipodi:namedview
     id="namedview43"
     pagecolor="#ffffff"
     bordercolor="#666666"
     borderopacity="1.0"
     inkscape:pageshadow="2"
     inkscape:pageopacity="0.0"
     inkscape:pagecheckerboard="0"
     showgrid="false"
     inkscape:zoom="0.6109375"
     inkscape:cx="315.08951"
     inkscape:cy="342.9156"
     inkscape:window-width="1850"
     inkscape:window-height="1016"
     inkscape:window-x="0"
     inkscape:window-y="0"
     inkscape:window-maximized="1"
     inkscape:current-layer="g39" />
  <defs
     id="defs5">
    <clipPath
       id="a-9">
      <circle
         cx="320"
         cy="320"
         r="320"
         transform="translate(640 220)"
         fill="none"
         stroke="#707070"
         stroke-width="1"
         id="circle2" />
    </clipPath>
  </defs>
  <g
     transform="translate(-640 -220)"
     id="g39">
    <g
       clip-path="url(#a-9)"
       id="g37">
      <g
         transform="translate(-685.325 3)"
         id="g35">
        <path
           d="M720.263,266.811a111.491,111.491,0,0,1-27.68,73.71c-2.36,2.68-4.82,5.25-7.41,7.69a111.561,111.561,0,0,1-47,26.55c-2.89.82-5.85,1.5-8.83,2.05a112.48,112.48,0,0,1-45.29-.65c-2.92-.63-5.8-1.4-8.63-2.27a111.7,111.7,0,0,1-45.2-26.82c-2.39-2.29-4.67-4.72-6.83-7.25-40.362-46.872,19.545-134.485,11.787-157.953s117.59-35.085,157.953,11.787a112,112,0,0,1,27.13,73.155Z"
           transform="translate(1037.087 148.188)"
           fill="#40419c"
           id="path9" />
        <path
           d="M608.263,298.311c104.1,4.688,181.508,41.856,173.65,176.79-5.676,97.473-77.746,176.79-173.65,176.79S440.271,572.576,434.613,475.1C425.831,323.775,510.676,293.917,608.263,298.311Z"
           transform="translate(1037.087 148.188)"
           fill="#e6e6e6"
           id="path11" />
        <path
           d="M766.073,548.971c-27.47,60.76-87.81,102.93-157.81,102.93s-130.34-42.17-157.81-102.93C514.958,461.815,637.9,443.453,725.06,507.958a196.329,196.329,0,0,1,41.013,41.013Z"
           transform="translate(1037.087 148.188)"
           opacity="0.1"
           style="isolation:isolate"
           id="path13" />
        <path
           d="M804.563,669.511c.082,48.825-392.721,53.321-392.65.04q0-8.91.78-17.61c4.926-167.59,95.62-184.075,195.52-178.69,111.267,6,195.575-2.142,195.52,178.69Q804.553,660.6,804.563,669.511Z"
           transform="translate(1037.087 148.188)"
           fill="#40419c"
           id="path15" />
        <path
           d="M711.443,370.031a103,103,0,1,1-3.81-27.88A103,103,0,0,1,711.443,370.031Z"
           transform="translate(1037.087 148.188)"
           fill="#ffab9e"
           id="path17" />
        <path
           d="M511.373,266.851c64.216-59.561,128.808-59.811,193.78,0a15.1,15.1,0,0,1,15.1,15.1v42.78a15.1,15.1,0,0,1-15.1,15.1c-63.284-29.584-127.674-34.165-193.78,0a15.1,15.1,0,0,1-15.1-15.1v-42.78A15.1,15.1,0,0,1,511.373,266.851Z"
           transform="translate(1037.087 148.188)"
           fill="#e6e6e6"
           id="path19" />
        <path
           d="M735.353,512.221c0,32.65-17.98,45.55-41.64,57.86q-3.855,1.995-7.89,4c-8.43,4.23-17.36,8.62-26.31,13.95-3.08,1.84-6.17,3.78-9.24,5.87a136.458,136.458,0,0,0-25.07,21.71A129.276,129.276,0,0,0,613.343,631l-.01.02c-1.74,2.64-3.43,5.38-5.07,8.29-44.04,78.02-127.09-56.9-127.09-127.09a127.09,127.09,0,1,1,254.18,0Z"
           transform="translate(1037.087 148.188)"
           fill="#e6e6e6"
           id="path21" />
        <path
           d="M629,434.348c0,3.887-9.285,11.829-20.737,11.829s-20.737-7.943-20.737-11.829,9.285-2.259,20.737-2.259S629,430.457,629,434.348Z"
           transform="translate(1037.087 148.188)"
           fill="#ffab9e"
           id="path23" />
        <path
           d="M804.563,669.511a196.507,196.507,0,0,1-5.25,45.3H417.263a196.509,196.509,0,0,1-5.25-45.3q0-8.91.78-17.61c135.593-24.917,268.555-37.37,391,0Q804.553,660.6,804.563,669.511Z"
           transform="translate(1037.087 177.997)"
           fill="#090814"
           id="path25" />
        <circle
           cx="41.52"
           cy="41.52"
           r="41.52"
           transform="translate(1603.83 819.828)"
           fill="#eeeff0"
           id="circle27" />
        <circle
           cx="32.72"
           cy="32.72"
           r="32.72"
           transform="translate(1612.63 828.629)"
           fill="#090814"
           id="circle29" />
        <circle
           cx="36.557"
           cy="36.557"
           r="36.557"
           transform="translate(1608.974 500.604)"
           fill="#ffab9e"
           id="circle31" />
        <circle
           cx="22"
           cy="22"
           r="22"
           transform="translate(1533 304)"
           fill="#e6e6e6"
           id="circle33" />
      </g>
    </g>
  </g>
</svg>
